<svg xmlns="http://www.w3.org/2000/svg" height="911.177" width="936.995"><g style="fill:#53354a" transform="matrix(260.96748 0 0 260.96748 -183.956 -196.78)"><path d="M3.938 2.385c.009.114-.023.144-.116.13a.582.582 0 0 1-.07.088.082.082 0 0 1-.113-.095c.012-.051.052-.069.13-.055a.325.325 0 0 1 .01-.043.367.367 0 0 1 .021-.041l-.002-.008c-.032-.03-.054-.064-.032-.11a.092.092 0 0 1 .107-.045c.064.007.128.014.192.023a.152.152 0 0 1 .036.009.083.083 0 0 1-.037.16c-.021-.001-.042-.006-.064-.008l-.062-.005ZM3.044 2.27c-.07-.001-.111-.046-.095-.094.028-.084.066-.165.101-.247a.045.045 0 0 1 .02-.02.04.04 0 0 0 .022-.052.08.08 0 0 1 .056-.094.086.086 0 0 1 .1.04.083.083 0 0 1-.03.11.042.042 0 0 0-.024.052.067.067 0 0 1-.003.036c-.028.07-.052.142-.086.21-.014.028-.047.046-.06.06ZM3.741 1.864a.091.091 0 0 1-.09-.058.068.068 0 0 0-.04-.032.086.086 0 0 1-.076-.085.081.081 0 0 1 .07-.08c.044-.008.074.013.096.06a.05.05 0 0 0 .038.024c.057 0 .114-.006.17-.009a.082.082 0 0 1 .094.07.08.08 0 0 1-.073.093c-.064.01-.129.012-.189.017ZM3.415 3.333c-.031-.033-.061-.06-.086-.09a.089.089 0 0 1 .004-.126c.035-.03.08-.023.123.017a1.022 1.022 0 0 0 .107.087.086.086 0 0 1 .012.151.066.066 0 0 0-.018.035.082.082 0 0 1-.065.075.079.079 0 0 1-.086-.03.08.08 0 0 1 .001-.103ZM2.143.827a.088.088 0 0 1 .081.076c.011.048.017.097.03.145a.101.101 0 0 0 .032.05.084.084 0 0 1 .034.102.078.078 0 0 1-.083.054.081.081 0 0 1-.08-.071.057.057 0 0 0-.015-.031c-.088-.07-.08-.169-.08-.262 0-.042.04-.06.081-.063ZM3.22 3.756c-.02.022-.035.055-.058.062a.127.127 0 0 1-.089-.013.153.153 0 0 1-.05-.064 1.694 1.694 0 0 1-.084-.169.08.08 0 0 1 .037-.106.081.081 0 0 1 .11.038c.012.018.02.038.03.057.023.041.048.082.07.124.012.02.02.04.034.071zM3.877 2.804c-.002.072-.053.113-.107.096a1.229 1.229 0 0 1-.19-.082.078.078 0 0 1-.037-.106.084.084 0 0 1 .114-.04 1.482 1.482 0 0 1 .168.075.202.202 0 0 1 .052.057ZM2.322 3.564c.008-.042.012-.085.023-.126a.073.073 0 0 1 .085-.056.072.072 0 0 1 .072.072c.002.07.001.141-.003.212a.08.08 0 0 1-.154.017.816.816 0 0 1-.023-.119ZM1.932 4.068c.007-.031.017-.085.03-.14a.149.149 0 0 1 .02-.041.08.08 0 0 1 .098-.038.08.08 0 0 1 .05.093q-.015.089-.033.177A.084.084 0 0 1 2 4.192c-.045-.007-.07-.045-.068-.124ZM1.463 2.75a.29.29 0 0 1-.04.053c-.04.039-.086.074-.13.11a.078.078 0 0 1-.093.011.073.073 0 0 1-.04-.086.147.147 0 0 1 .04-.07.986.986 0 0 1 .142-.103c.056-.033.123.007.121.084ZM1.658 1.18c-.002.075-.07.117-.12.084a.353.353 0 0 1-.141-.167.084.084 0 0 1 .037-.108.088.088 0 0 1 .11.032c.027.035.056.069.082.105a.431.431 0 0 1 .032.055zM3.293 2.6c-.06.06-.11.068-.148.026a.083.083 0 0 1 .005-.12c.043-.037.092-.025.144.037.062-.058.11-.065.148-.023a.086.086 0 0 1-.008.12c-.043.036-.092.023-.141-.04ZM1.097 1.422c.032.007.08.015.125.029a.083.083 0 1 1-.038.16 1.407 1.407 0 0 1-.128-.024.086.086 0 0 1-.073-.096c.006-.044.046-.072.114-.07ZM2.615 1.593c-.012.079-.043.114-.097.108a.086.086 0 0 1-.075-.095c.009-.057.049-.078.122-.068a.705.705 0 0 1 .067-.095c.01-.01.039-.01.057-.006a.082.082 0 0 1 .06.1c-.012.052-.05.068-.134.056ZM2.97 1.613c-.068-.045-.085-.095-.05-.14a.086.086 0 0 1 .123-.012.088.088 0 0 1-.013.136.495.495 0 0 1 .057.093.083.083 0 0 1-.02.063.08.08 0 0 1-.115.006c-.043-.04-.038-.087.018-.146ZM2.917 1.242c.083.011.115.037.113.091a.08.08 0 0 1-.074.08c-.053.005-.082-.023-.097-.093-.09-.019-.118-.04-.115-.094a.081.081 0 0 1 .071-.078c.053-.006.08.02.102.094zM1.683 3.423a1.593 1.593 0 0 1 .076-.16.073.073 0 0 1 .098-.026.08.08 0 0 1 .041.102 5.187 5.187 0 0 1-.04.127.083.083 0 0 1-.094.057.086.086 0 0 1-.069-.095ZM2.874 2.435a.182.182 0 0 1-.04.053 1 1 0 0 1-.138.075.077.077 0 0 1-.072-.136 1.124 1.124 0 0 1 .148-.075c.05-.02.1.016.102.083ZM3.371 2.234a.205.205 0 0 0 .031-.02.087.087 0 0 1 .11-.014.08.08 0 0 1 .032.098.083.083 0 0 1-.092.054.072.072 0 0 0-.046.017.089.089 0 0 1-.11.019.08.08 0 0 1-.037-.096c.01-.04.047-.062.112-.058ZM3.58 1.337c-.062 0-.109-.063-.078-.11a.565.565 0 0 1 .13-.13.062.062 0 0 1 .089.022.105.105 0 0 1 .01.087.785.785 0 0 1-.118.12c-.01.009-.026.009-.033.01ZM1.07 2.144a.103.103 0 0 1 .083.069.07.07 0 0 1-.038.09.81.81 0 0 1-.14.048.08.08 0 0 1-.064-.139 1.274 1.274 0 0 1 .158-.068ZM.705 2.684c.013-.06.104-.163.156-.164a.097.097 0 0 1 .074.031.096.096 0 0 1 .004.084.392.392 0 0 1-.095.11.096.096 0 0 1-.084.008c-.024-.011-.037-.045-.055-.069ZM2.75 3.067a.095.095 0 0 1-.08-.06.084.084 0 0 1 .02-.093.57.57 0 0 1 .043-.056c.022-.019.05-.044.074-.042a.102.102 0 0 1 .074.047.117.117 0 0 1-.01.085.255.255 0 0 1-.056.075.4.4 0 0 1-.065.044ZM3.823 3.676c0 .067-.06.113-.11.086a.41.41 0 0 1-.114-.103.07.07 0 0 1 .019-.099.074.074 0 0 1 .101-.002.63.63 0 0 1 .079.071.176.176 0 0 1 .025.047ZM1.129 3.11a.08.08 0 0 1 .064.127.38.38 0 0 1-.095.092.08.08 0 0 1-.12-.071.203.203 0 0 1 .15-.147ZM2.807.996a.843.843 0 0 1 .045-.119.08.08 0 0 1 .103-.034A.082.082 0 0 1 3 .947c-.007.028-.014.056-.024.084a.082.082 0 0 1-.097.057.1.1 0 0 1-.07-.092ZM.927 1.756a.282.282 0 0 1 .043.005.077.077 0 0 1 .066.078.072.072 0 0 1-.061.08.292.292 0 0 1-.113-.006.077.077 0 0 1-.056-.097c.011-.045.047-.065.12-.06ZM3.035 4.173a.266.266 0 0 1-.06.065.07.07 0 0 1-.09-.023.147.147 0 0 1-.03-.143.116.116 0 0 1 .066-.058.066.066 0 0 1 .082.044 1.024 1.024 0 0 1 .032.115ZM2.23 2.383c-.024.027-.04.059-.063.067a.102.102 0 0 1-.084-.012.24.24 0 0 1-.062-.09.077.077 0 0 1 .037-.099.076.076 0 0 1 .1.019 1.202 1.202 0 0 1 .072.115ZM1.507 1.633c.069.001.12.043.119.096a.082.082 0 0 1-.086.079c-.074 0-.122-.036-.123-.09a.083.083 0 0 1 .09-.085zM4.014 3.016c.07.004.123.051.119.104a.083.083 0 0 1-.093.075.114.114 0 0 1-.114-.1.08.08 0 0 1 .088-.08ZM2.454 2.3a.118.118 0 0 1 .119-.1.082.082 0 0 1 .078.085.125.125 0 0 1-.117.103.083.083 0 0 1-.08-.088Z"/><circle transform="rotate(-87.949 2.434 2.789)" r=".083" cy="2.789" cx="2.434"/><circle transform="rotate(-.221 2.213 2.548)" r=".084" cy="2.549" cx="2.214"/><circle transform="rotate(-89.111 2.16 1.87)" r=".084" cy="1.87" cx="2.16"/><circle transform="rotate(-.107 2.283 1.441)" r=".084" cy="1.442" cx="2.282"/><circle transform="rotate(-89.094 1.437 3.183)" r=".084" cy="3.183" cx="1.437"/><circle transform="rotate(-88.407 2.373 1.83)" r=".083" cy="1.83" cx="2.373"/><circle transform="rotate(-2.162 3.399 1.337)" r=".084" cy="1.337" cx="3.399"/><circle transform="rotate(-85.773 3.386 1.602)" r=".083" cy="1.602" cx="3.386"/><circle transform="rotate(-87.379 1.964 1.493)" r=".083" cy="1.493" cx="1.964"/><circle transform="rotate(-88.236 2.693 3.362)" r=".083" cy="3.362" cx="2.693"/><circle transform="rotate(-87.708 4.205 1.963)" r=".084" cy="1.963" cx="4.205"/><circle transform="rotate(-.858 3.1 3.182)" r=".084" cy="3.182" cx="3.1"/><circle r=".084" cy="3.449" cx="2.181"/><circle transform="rotate(-1.946 1.874 1.99)" r=".083" cy="1.991" cx="1.874"/><circle transform="rotate(-.767 1.428 2.23)" r=".084" cy="2.23" cx="1.428"/><circle transform="rotate(-.256 3.373 2.08)" r=".083" cy="2.083" cx="3.372"/><circle transform="rotate(-.65 2.9 2.709)" r=".084" cy="2.709" cx="2.9"/><circle transform="rotate(-89.727 3.167 1.244)" r=".083" cy="1.244" cx="3.167"/><circle transform="rotate(-89.389 1.881 2.862)" r=".083" cy="2.862" cx="1.881"/><circle transform="rotate(-88.83 3.672 2.024)" r=".083" cy="2.024" cx="3.672"/><circle transform="rotate(-89.639 2.58 3.088)" r=".084" cy="3.088" cx="2.58"/><circle transform="rotate(-87.492 2.614 1.27)" r=".083" cy="1.27" cx="2.614"/><circle transform="rotate(-89.439 1.402 3.66)" r=".083" cy="3.661" cx="1.402"/><circle transform="rotate(-89.167 2.64 3.987)" r=".084" cy="3.987" cx="2.64"/><circle transform="rotate(-1.184 2.514 .837)" r=".083" cy=".837" cx="2.514"/><circle transform="rotate(-1.278 2.809 2.09)" r=".084" cy="2.089" cx="2.809"/><circle transform="rotate(-.084 1.754 2.557)" r=".084" cy="2.555" cx="1.755"/><circle transform="rotate(-88.874 2.34 2.136)" r=".084" cy="2.136" cx="2.341"/><circle transform="rotate(-89.222 1.809 2.21)" r=".083" cy="2.21" cx="1.809"/><circle transform="rotate(-89.02 3.333 .897)" r=".083" cy=".897" cx="3.333"/><circle transform="rotate(-1.095 3.438 1.91)" r=".083" cy="1.909" cx="3.438"/><circle transform="rotate(-89.074 4.212 2.662)" r=".083" cy="2.662" cx="4.212"/><circle transform="rotate(-89.908 1.954 1.69)" r=".083" cy="1.69" cx="1.954"/><circle transform="rotate(-89.806 3.353 2.888)" r=".084" cy="2.888" cx="3.353"/><circle transform="rotate(-89.665 3.1 2.828)" r=".083" cy="2.828" cx="3.1"/><circle transform="rotate(-.885 3.846 1.457)" r=".083" cy="1.457" cx="3.846"/><circle transform="rotate(-.526 3.24 3.035)" r=".083" cy="3.035" cx="3.24"/><circle transform="rotate(-89.582 3.672 3.042)" r=".083" cy="3.042" cx="3.672"/><circle transform="rotate(-.714 2.787 1.823)" r=".083" cy="1.824" cx="2.787"/><circle transform="rotate(-1.146 2.5 1.963)" r=".083" cy="1.963" cx="2.5"/><circle r=".083" cy="3.015" cx="2.25"/></g></svg>